<svg width="346" height="76" viewBox="0 0 346 76" fill="none" xmlns="http://www.w3.org/2000/svg">
<path d="M27.12 45L16.74 27.48H9V45H4.8V3.06H17.4C22.08 3.06 25.62 4.18 28.02 6.42C30.46 8.66 31.68 11.6 31.68 15.24C31.68 18.28 30.8 20.88 29.04 23.04C27.32 25.16 24.76 26.54 21.36 27.18L32.16 45H27.12ZM9 24.06H17.46C20.74 24.06 23.2 23.26 24.84 21.66C26.52 20.06 27.36 17.92 27.36 15.24C27.36 12.48 26.56 10.36 24.96 8.88C23.36 7.36 20.84 6.6 17.4 6.6H9V24.06ZM54.3548 45.48C51.2748 45.48 48.4948 44.8 46.0148 43.44C43.5748 42.04 41.6348 40.08 40.1948 37.56C38.7948 35 38.0948 32.02 38.0948 28.62C38.0948 25.22 38.8148 22.26 40.2548 19.74C41.6948 17.18 43.6548 15.22 46.1348 13.86C48.6148 12.46 51.3948 11.76 54.4748 11.76C57.5548 11.76 60.3348 12.46 62.8148 13.86C65.3348 15.22 67.2948 17.18 68.6948 19.74C70.1348 22.26 70.8548 25.22 70.8548 28.62C70.8548 31.98 70.1348 34.94 68.6948 37.5C67.2548 40.06 65.2748 42.04 62.7548 43.44C60.2348 44.8 57.4348 45.48 54.3548 45.48ZM54.3548 41.82C56.5148 41.82 58.5148 41.34 60.3548 40.38C62.1948 39.38 63.6748 37.9 64.7948 35.94C65.9548 33.94 66.5348 31.5 66.5348 28.62C66.5348 25.74 65.9748 23.32 64.8548 21.36C63.7348 19.36 62.2548 17.88 60.4148 16.92C58.5748 15.92 56.5748 15.42 54.4148 15.42C52.2548 15.42 50.2548 15.92 48.4148 16.92C46.5748 17.88 45.0948 19.36 43.9748 21.36C42.8948 23.32 42.3548 25.74 42.3548 28.62C42.3548 31.5 42.8948 33.94 43.9748 35.94C45.0948 37.9 46.5548 39.38 48.3548 40.38C50.1948 41.34 52.1948 41.82 54.3548 41.82ZM106.891 12.24V45H102.691V39.24C101.731 41.28 100.251 42.84 98.2509 43.92C96.2509 45 94.0109 45.54 91.5309 45.54C87.6109 45.54 84.4109 44.34 81.9309 41.94C79.4509 39.5 78.2109 35.98 78.2109 31.38V12.24H82.3509V30.9C82.3509 34.46 83.2309 37.18 84.9909 39.06C86.7909 40.94 89.2309 41.88 92.3109 41.88C95.4709 41.88 97.9909 40.88 99.8709 38.88C101.751 36.88 102.691 33.94 102.691 30.06V12.24H106.891ZM131.84 11.64C135.76 11.64 138.96 12.86 141.44 15.3C143.92 17.7 145.16 21.2 145.16 25.8V45H141.02V26.28C141.02 22.72 140.12 20 138.32 18.12C136.56 16.24 134.14 15.3 131.06 15.3C127.9 15.3 125.38 16.3 123.5 18.3C121.62 20.3 120.68 23.24 120.68 27.12V45H116.48V12.24H120.68V17.82C121.72 15.82 123.22 14.3 125.18 13.26C127.14 12.18 129.36 11.64 131.84 11.64ZM152.528 28.56C152.528 25.2 153.208 22.26 154.568 19.74C155.928 17.18 157.788 15.22 160.148 13.86C162.548 12.46 165.248 11.76 168.248 11.76C171.128 11.76 173.728 12.46 176.048 13.86C178.368 15.26 180.068 17.08 181.148 19.32V0.599999H185.348V45H181.148V37.68C180.148 39.96 178.508 41.84 176.228 43.32C173.948 44.76 171.268 45.48 168.188 45.48C165.188 45.48 162.488 44.78 160.088 43.38C157.728 41.98 155.868 40 154.508 37.44C153.188 34.88 152.528 31.92 152.528 28.56ZM181.148 28.62C181.148 25.98 180.608 23.66 179.528 21.66C178.448 19.66 176.968 18.12 175.088 17.04C173.248 15.96 171.208 15.42 168.968 15.42C166.648 15.42 164.568 15.94 162.728 16.98C160.888 18.02 159.428 19.54 158.348 21.54C157.308 23.5 156.788 25.84 156.788 28.56C156.788 31.24 157.308 33.6 158.348 35.64C159.428 37.64 160.888 39.18 162.728 40.26C164.568 41.3 166.648 41.82 168.968 41.82C171.208 41.82 173.248 41.28 175.088 40.2C176.968 39.12 178.448 37.58 179.528 35.58C180.608 33.58 181.148 31.26 181.148 28.62ZM233.722 45L223.342 27.48H215.602V45H211.402V3.06H224.002C228.682 3.06 232.222 4.18 234.622 6.42C237.062 8.66 238.282 11.6 238.282 15.24C238.282 18.28 237.402 20.88 235.642 23.04C233.922 25.16 231.362 26.54 227.962 27.18L238.762 45H233.722ZM215.602 24.06H224.062C227.342 24.06 229.802 23.26 231.442 21.66C233.122 20.06 233.962 17.92 233.962 15.24C233.962 12.48 233.162 10.36 231.562 8.88C229.962 7.36 227.442 6.6 224.002 6.6H215.602V24.06ZM260.956 45.48C257.876 45.48 255.096 44.8 252.616 43.44C250.176 42.04 248.236 40.08 246.796 37.56C245.396 35 244.696 32.02 244.696 28.62C244.696 25.22 245.416 22.26 246.856 19.74C248.296 17.18 250.256 15.22 252.736 13.86C255.216 12.46 257.996 11.76 261.076 11.76C264.156 11.76 266.936 12.46 269.416 13.86C271.936 15.22 273.896 17.18 275.296 19.74C276.736 22.26 277.456 25.22 277.456 28.62C277.456 31.98 276.736 34.94 275.296 37.5C273.856 40.06 271.876 42.04 269.356 43.44C266.836 44.8 264.036 45.48 260.956 45.48ZM260.956 41.82C263.116 41.82 265.116 41.34 266.956 40.38C268.796 39.38 270.276 37.9 271.396 35.94C272.556 33.94 273.136 31.5 273.136 28.62C273.136 25.74 272.576 23.32 271.456 21.36C270.336 19.36 268.856 17.88 267.016 16.92C265.176 15.92 263.176 15.42 261.016 15.42C258.856 15.42 256.856 15.92 255.016 16.92C253.176 17.88 251.696 19.36 250.576 21.36C249.496 23.32 248.956 25.74 248.956 28.62C248.956 31.5 249.496 33.94 250.576 35.94C251.696 37.9 253.156 39.38 254.956 40.38C256.796 41.34 258.796 41.82 260.956 41.82ZM283.193 28.62C283.193 25.22 283.873 22.26 285.233 19.74C286.593 17.18 288.473 15.22 290.873 13.86C293.273 12.46 296.013 11.76 299.093 11.76C303.133 11.76 306.453 12.76 309.053 14.76C311.693 16.76 313.393 19.48 314.153 22.92H309.653C309.093 20.56 307.873 18.72 305.993 17.4C304.153 16.04 301.853 15.36 299.093 15.36C296.893 15.36 294.913 15.86 293.153 16.86C291.393 17.86 289.993 19.36 288.953 21.36C287.953 23.32 287.453 25.74 287.453 28.62C287.453 31.5 287.953 33.94 288.953 35.94C289.993 37.94 291.393 39.44 293.153 40.44C294.913 41.44 296.893 41.94 299.093 41.94C301.853 41.94 304.153 41.28 305.993 39.96C307.873 38.6 309.093 36.72 309.653 34.32H314.153C313.393 37.68 311.693 40.38 309.053 42.42C306.413 44.46 303.093 45.48 299.093 45.48C296.013 45.48 293.273 44.8 290.873 43.44C288.473 42.04 286.593 40.08 285.233 37.56C283.873 35 283.193 32.02 283.193 28.62ZM339.609 45L326.109 30.3V45H321.909V0.599999H326.109V26.88L339.309 12.24H345.189L329.649 28.56L345.309 45H339.609ZM12.327 55.195V58.471H8.379V70H4.263V58.471H0.357V55.195H12.327ZM33.8208 60.298C34.2828 59.626 34.8428 59.094 35.5008 58.702C36.1588 58.31 36.8658 58.114 37.6218 58.114V62.503H36.4668C35.5708 62.503 34.9058 62.678 34.4718 63.028C34.0378 63.378 33.8208 63.987 33.8208 64.855V70H29.7048V58.219H33.8208V60.298ZM67.0064 58.219V70H62.8694V68.32C62.5194 68.852 62.0364 69.286 61.4204 69.622C60.8044 69.944 60.0974 70.105 59.2994 70.105C57.9274 70.105 56.8424 69.657 56.0444 68.761C55.2604 67.851 54.8684 66.619 54.8684 65.065V58.219H58.9634V64.54C58.9634 65.212 59.1384 65.744 59.4884 66.136C59.8524 66.514 60.3284 66.703 60.9164 66.703C61.5184 66.703 61.9944 66.514 62.3444 66.136C62.6944 65.744 62.8694 65.212 62.8694 64.54V58.219H67.0064ZM90.2229 70.147C89.1589 70.147 88.2069 69.972 87.3669 69.622C86.5409 69.258 85.8829 68.768 85.3929 68.152C84.9169 67.522 84.6509 66.815 84.5949 66.031H88.5849C88.6409 66.409 88.8159 66.703 89.1099 66.913C89.4039 67.123 89.7679 67.228 90.2019 67.228C90.5379 67.228 90.8039 67.158 90.9999 67.018C91.1959 66.878 91.2939 66.696 91.2939 66.472C91.2939 66.178 91.1329 65.961 90.8109 65.821C90.4889 65.681 89.9569 65.527 89.2149 65.359C88.3749 65.191 87.6749 65.002 87.1149 64.792C86.5549 64.582 86.0649 64.239 85.6449 63.763C85.2389 63.287 85.0359 62.643 85.0359 61.831C85.0359 61.131 85.2249 60.501 85.6029 59.941C85.9809 59.367 86.5339 58.912 87.2619 58.576C88.0039 58.24 88.8929 58.072 89.9289 58.072C91.4689 58.072 92.6799 58.45 93.5619 59.206C94.4439 59.962 94.9549 60.956 95.0949 62.188H91.3779C91.3079 61.81 91.1399 61.523 90.8739 61.327C90.6219 61.117 90.2789 61.012 89.8449 61.012C89.5089 61.012 89.2499 61.075 89.0679 61.201C88.8999 61.327 88.8159 61.502 88.8159 61.726C88.8159 62.006 88.9769 62.223 89.2989 62.377C89.6209 62.517 90.1389 62.664 90.8529 62.818C91.7069 63 92.4139 63.203 92.9739 63.427C93.5479 63.651 94.0449 64.015 94.4649 64.519C94.8989 65.009 95.1159 65.681 95.1159 66.535C95.1159 67.221 94.9129 67.837 94.5069 68.383C94.1149 68.929 93.5479 69.363 92.8059 69.685C92.0779 69.993 91.2169 70.147 90.2229 70.147ZM120.743 58.114C122.087 58.114 123.151 58.569 123.935 59.479C124.733 60.375 125.132 61.593 125.132 63.133V70H121.016V63.679C121.016 63.007 120.841 62.482 120.491 62.104C120.141 61.712 119.672 61.516 119.084 61.516C118.468 61.516 117.985 61.712 117.635 62.104C117.285 62.482 117.11 63.007 117.11 63.679V70H112.994V54.46H117.11V59.899C117.474 59.367 117.964 58.94 118.58 58.618C119.21 58.282 119.931 58.114 120.743 58.114ZM176.371 55.195V70H172.255V64.057H167.236V70H163.12V55.195H167.236V60.76H172.255V55.195H176.371ZM193.91 64.099C193.91 62.881 194.127 61.817 194.561 60.907C195.009 59.997 195.611 59.297 196.367 58.807C197.137 58.317 197.991 58.072 198.929 58.072C199.741 58.072 200.441 58.233 201.029 58.555C201.617 58.877 202.072 59.311 202.394 59.857V58.219H206.51V70H202.394V68.362C202.072 68.908 201.61 69.342 201.008 69.664C200.42 69.986 199.727 70.147 198.929 70.147C197.991 70.147 197.137 69.902 196.367 69.412C195.611 68.922 195.009 68.222 194.561 67.312C194.127 66.388 193.91 65.317 193.91 64.099ZM202.394 64.099C202.394 63.343 202.184 62.748 201.764 62.314C201.358 61.88 200.854 61.663 200.252 61.663C199.636 61.663 199.125 61.88 198.719 62.314C198.313 62.734 198.11 63.329 198.11 64.099C198.11 64.855 198.313 65.457 198.719 65.905C199.125 66.339 199.636 66.556 200.252 66.556C200.854 66.556 201.358 66.339 201.764 65.905C202.184 65.471 202.394 64.869 202.394 64.099ZM236.764 58.219V70H232.627V68.32C232.277 68.852 231.794 69.286 231.178 69.622C230.562 69.944 229.855 70.105 229.057 70.105C227.685 70.105 226.6 69.657 225.802 68.761C225.018 67.851 224.626 66.619 224.626 65.065V58.219H228.721V64.54C228.721 65.212 228.896 65.744 229.246 66.136C229.61 66.514 230.086 66.703 230.674 66.703C231.276 66.703 231.752 66.514 232.102 66.136C232.452 65.744 232.627 65.212 232.627 64.54V58.219H236.764ZM259.078 54.46V70H254.962V54.46H259.078ZM279.356 57.127C278.628 57.127 278.04 56.931 277.592 56.539C277.158 56.133 276.941 55.629 276.941 55.027C276.941 54.411 277.158 53.9 277.592 53.494C278.04 53.088 278.628 52.885 279.356 52.885C280.07 52.885 280.644 53.088 281.078 53.494C281.526 53.9 281.75 54.411 281.75 55.027C281.75 55.629 281.526 56.133 281.078 56.539C280.644 56.931 280.07 57.127 279.356 57.127ZM281.393 58.219V70H277.277V58.219H281.393ZM307.299 58.114C308.657 58.114 309.735 58.569 310.533 59.479C311.331 60.375 311.73 61.593 311.73 63.133V70H307.614V63.679C307.614 63.007 307.439 62.482 307.089 62.104C306.739 61.712 306.27 61.516 305.682 61.516C305.066 61.516 304.583 61.712 304.233 62.104C303.883 62.482 303.708 63.007 303.708 63.679V70H299.592V58.219H303.708V59.899C304.072 59.367 304.562 58.94 305.178 58.618C305.794 58.282 306.501 58.114 307.299 58.114ZM334.19 58.072C334.988 58.072 335.681 58.233 336.269 58.555C336.871 58.877 337.333 59.311 337.655 59.857V58.219H341.771V69.874C341.771 70.98 341.561 71.974 341.141 72.856C340.721 73.752 340.063 74.466 339.167 74.998C338.285 75.53 337.165 75.796 335.807 75.796C333.987 75.796 332.531 75.369 331.439 74.515C330.347 73.661 329.724 72.499 329.57 71.029H333.623C333.707 71.407 333.917 71.701 334.253 71.911C334.589 72.121 335.023 72.226 335.555 72.226C336.955 72.226 337.655 71.442 337.655 69.874V68.362C337.333 68.908 336.871 69.342 336.269 69.664C335.681 69.986 334.988 70.147 334.19 70.147C333.252 70.147 332.398 69.902 331.628 69.412C330.872 68.922 330.27 68.222 329.822 67.312C329.388 66.388 329.171 65.317 329.171 64.099C329.171 62.881 329.388 61.817 329.822 60.907C330.27 59.997 330.872 59.297 331.628 58.807C332.398 58.317 333.252 58.072 334.19 58.072ZM337.655 64.099C337.655 63.343 337.445 62.748 337.025 62.314C336.619 61.88 336.115 61.663 335.513 61.663C334.897 61.663 334.386 61.88 333.98 62.314C333.574 62.734 333.371 63.329 333.371 64.099C333.371 64.855 333.574 65.457 333.98 65.905C334.386 66.339 334.897 66.556 335.513 66.556C336.115 66.556 336.619 66.339 337.025 65.905C337.445 65.471 337.655 64.869 337.655 64.099Z" fill="#6D91EE"/>
</svg>
